<svg xmlns="http://www.w3.org/2000/svg" xmlns:xlink="http://www.w3.org/1999/xlink" width="500" zoomAndPan="magnify" viewBox="0 0 375 374.999991" height="500" preserveAspectRatio="xMidYMid meet" version="1.0"><defs><g/><clipPath id="13fbfdc444"><path d="M 162 50.109375 L 213 50.109375 L 213 101 L 162 101 Z M 162 50.109375 " clip-rule="nonzero"/></clipPath><clipPath id="4fac07401b"><path d="M 103.042969 106 L 162 106 L 162 166 L 103.042969 166 Z M 103.042969 106 " clip-rule="nonzero"/></clipPath><clipPath id="f6c3f76ef8"><path d="M 219 105 L 271.792969 105 L 271.792969 167 L 219 167 Z M 219 105 " clip-rule="nonzero"/></clipPath><clipPath id="2ed6503245"><path d="M 130 118 L 244 118 L 244 218.859375 L 130 218.859375 Z M 130 118 " clip-rule="nonzero"/></clipPath></defs><rect x="-37.5" width="450" fill="#ffffff" y="-37.499999" height="449.999989" fill-opacity="1"/><rect x="-37.5" width="450" fill="#ffffff" y="-37.499999" height="449.999989" fill-opacity="1"/><g clip-path="url(#13fbfdc444)"><path fill="#ff5757" d="M 169.816406 92.933594 C 169.816406 92.933594 169.949219 93.066406 169.949219 93.066406 C 174.433594 97.550781 180.636719 100.324219 187.5 100.324219 C 194.359375 100.324219 200.5625 97.550781 205.050781 93.066406 C 205.050781 93.066406 205.183594 92.933594 205.183594 92.933594 C 205.183594 92.933594 205.3125 92.800781 205.3125 92.800781 C 209.800781 88.3125 212.570312 82.113281 212.570312 75.25 C 212.570312 68.386719 209.800781 62.183594 205.3125 57.699219 C 205.3125 57.699219 205.183594 57.566406 205.183594 57.566406 C 205.183594 57.566406 205.050781 57.433594 205.050781 57.433594 C 200.5625 52.949219 194.359375 50.175781 187.5 50.175781 C 180.636719 50.175781 174.433594 52.949219 169.949219 57.433594 C 169.949219 57.433594 169.816406 57.566406 169.816406 57.566406 C 169.816406 57.566406 169.683594 57.699219 169.683594 57.699219 C 165.195312 62.183594 162.425781 68.386719 162.425781 75.25 C 162.425781 82.113281 165.195312 88.3125 169.683594 92.800781 C 169.683594 92.800781 169.683594 92.933594 169.816406 92.933594 Z M 170.34375 72.609375 L 167.835938 72.609375 C 168.363281 69.179688 169.683594 65.878906 171.664062 63.242188 L 173.378906 64.957031 C 173.90625 65.484375 174.566406 65.75 175.226562 65.75 C 175.886719 65.75 176.546875 65.484375 177.074219 64.957031 C 178.128906 63.902344 178.128906 62.316406 177.074219 61.261719 L 175.359375 59.546875 C 177.996094 57.566406 181.164062 56.113281 184.726562 55.71875 L 184.726562 58.09375 C 184.726562 59.546875 185.914062 60.734375 187.367188 60.734375 C 188.820312 60.734375 190.007812 59.546875 190.007812 58.09375 L 190.007812 55.585938 C 193.4375 56.113281 196.738281 57.433594 199.375 59.414062 L 197.660156 61.128906 C 196.605469 62.183594 196.605469 63.769531 197.660156 64.824219 C 198.1875 65.351562 198.847656 65.617188 199.507812 65.617188 C 200.167969 65.617188 200.828125 65.351562 201.355469 64.824219 L 203.070312 63.109375 C 205.050781 65.75 206.5 68.914062 206.898438 72.480469 L 204.65625 72.480469 C 203.203125 72.480469 202.015625 73.667969 202.015625 75.117188 C 202.015625 76.570312 203.203125 77.757812 204.65625 77.757812 L 207.160156 77.757812 C 206.632812 81.1875 205.3125 84.488281 203.335938 87.125 L 201.621094 85.410156 C 200.5625 84.355469 198.980469 84.355469 197.925781 85.410156 C 196.867188 86.464844 196.867188 88.050781 197.925781 89.105469 L 199.640625 90.820312 C 197 92.800781 193.832031 94.253906 190.269531 94.648438 L 190.269531 92.40625 C 190.269531 90.953125 189.082031 89.765625 187.632812 89.765625 C 186.179688 89.765625 184.992188 90.953125 184.992188 92.40625 L 184.992188 94.914062 C 181.5625 94.382812 178.261719 93.066406 175.621094 91.085938 L 177.335938 89.371094 C 178.394531 88.3125 178.394531 86.730469 177.335938 85.675781 C 176.28125 84.621094 174.699219 84.621094 173.644531 85.675781 L 171.925781 87.390625 C 169.949219 84.75 168.496094 81.585938 168.101562 78.019531 L 170.34375 78.019531 C 171.796875 78.019531 172.984375 76.832031 172.984375 75.382812 C 172.984375 73.929688 171.796875 72.609375 170.34375 72.609375 Z M 170.34375 72.609375 " fill-opacity="1" fill-rule="nonzero"/></g><path fill="#ff5757" d="M 180.902344 77.890625 L 187.5 77.890625 C 188.949219 77.890625 190.136719 76.703125 190.136719 75.25 L 190.136719 67.332031 C 190.136719 65.878906 188.949219 64.691406 187.5 64.691406 C 186.046875 64.691406 184.859375 65.878906 184.859375 67.332031 L 184.859375 72.609375 L 180.902344 72.609375 C 179.449219 72.609375 178.261719 73.796875 178.261719 75.25 C 178.261719 76.703125 179.449219 77.890625 180.902344 77.890625 Z M 180.902344 77.890625 " fill-opacity="1" fill-rule="nonzero"/><g clip-path="url(#4fac07401b)"><path fill="#ff5757" d="M 106.738281 143.738281 C 107.265625 145.324219 107.925781 146.90625 108.714844 148.488281 C 107.925781 150.734375 108.320312 153.371094 110.167969 155.089844 L 113.070312 157.992188 C 114.257812 159.179688 115.84375 159.839844 117.558594 159.839844 C 118.351562 159.839844 119.007812 159.707031 119.800781 159.441406 C 121.253906 160.234375 122.835938 160.894531 124.550781 161.421875 C 125.609375 163.535156 127.71875 165.117188 130.226562 165.117188 L 134.316406 165.117188 C 136.824219 165.117188 139.066406 163.664062 139.992188 161.421875 C 141.574219 160.894531 143.160156 160.234375 144.742188 159.441406 C 145.402344 159.707031 146.195312 159.839844 146.984375 159.839844 C 148.703125 159.839844 150.285156 159.179688 151.472656 157.992188 L 154.375 155.089844 C 156.222656 153.242188 156.621094 150.734375 155.828125 148.488281 C 156.621094 147.039062 157.277344 145.453125 157.808594 143.738281 C 159.917969 142.683594 161.503906 140.570312 161.503906 138.066406 L 161.503906 133.972656 C 161.503906 131.464844 160.050781 129.222656 157.808594 128.300781 C 157.277344 126.714844 156.621094 125.132812 155.828125 123.546875 C 156.089844 122.890625 156.222656 122.097656 156.222656 121.304688 C 156.222656 119.589844 155.5625 118.007812 154.375 116.820312 L 151.472656 113.914062 C 150.285156 112.726562 148.703125 112.066406 146.984375 112.066406 C 146.195312 112.066406 145.535156 112.199219 144.742188 112.464844 C 143.292969 111.671875 141.707031 111.011719 139.992188 110.484375 C 138.9375 108.371094 136.824219 106.789062 134.316406 106.789062 L 130.226562 106.789062 C 127.71875 106.789062 125.476562 108.242188 124.550781 110.484375 C 122.96875 111.011719 121.386719 111.671875 119.800781 112.464844 C 118.878906 112.332031 118.21875 112.199219 117.425781 112.199219 C 115.710938 112.199219 114.128906 112.859375 112.9375 114.046875 L 110.035156 116.949219 C 108.980469 118.007812 108.320312 119.589844 108.320312 121.304688 C 108.320312 122.097656 108.453125 122.757812 108.714844 123.546875 C 107.925781 125 107.265625 126.582031 106.738281 128.300781 C 104.492188 129.222656 103.042969 131.335938 103.042969 133.972656 L 103.042969 138.066406 C 103.042969 140.570312 104.492188 142.683594 106.738281 143.738281 Z M 108.320312 133.972656 C 108.320312 133.445312 108.714844 132.917969 109.375 132.917969 L 111.09375 132.917969 C 111.621094 129.355469 113.070312 126.054688 115.050781 123.285156 L 113.863281 122.097656 C 113.46875 121.699219 113.46875 121.042969 113.863281 120.644531 L 116.765625 117.742188 C 116.898438 117.609375 117.164062 117.476562 117.425781 117.476562 C 117.691406 117.476562 117.953125 117.609375 118.085938 117.742188 L 119.273438 118.929688 C 122.042969 116.820312 125.34375 115.5 128.90625 114.972656 L 128.90625 113.253906 C 128.90625 112.726562 129.304688 112.199219 129.960938 112.199219 L 134.054688 112.199219 C 134.582031 112.199219 135.109375 112.59375 135.109375 113.253906 L 135.109375 114.972656 C 138.671875 115.5 141.972656 116.949219 144.742188 118.929688 L 145.929688 117.742188 C 146.0625 117.609375 146.328125 117.476562 146.589844 117.476562 C 146.855469 117.476562 147.117188 117.609375 147.25 117.742188 L 150.152344 120.644531 C 150.550781 121.042969 150.550781 121.699219 150.152344 122.097656 L 148.964844 123.285156 C 151.078125 126.054688 152.398438 129.355469 152.925781 132.917969 L 154.640625 132.917969 C 155.167969 132.917969 155.695312 133.3125 155.695312 133.972656 L 155.695312 138.066406 C 155.695312 138.59375 155.300781 139.121094 154.640625 139.121094 L 152.925781 139.121094 C 152.398438 142.683594 150.945312 145.984375 148.964844 148.753906 L 150.152344 149.941406 C 150.550781 150.335938 150.550781 150.996094 150.152344 151.394531 L 147.25 154.296875 C 147.25 154.429688 146.984375 154.429688 146.722656 154.429688 C 146.457031 154.429688 146.195312 154.296875 146.0625 154.164062 L 144.875 152.976562 C 142.101562 155.089844 138.804688 156.40625 135.242188 156.9375 L 135.242188 158.652344 C 135.242188 159.179688 134.84375 159.707031 134.1875 159.707031 L 130.09375 159.707031 C 129.566406 159.707031 129.039062 159.3125 129.039062 158.652344 L 129.039062 156.9375 C 125.476562 156.40625 122.175781 154.957031 119.40625 152.976562 L 118.21875 154.164062 C 117.953125 154.429688 117.691406 154.429688 117.425781 154.429688 C 117.164062 154.429688 116.898438 154.296875 116.765625 154.164062 L 113.863281 151.261719 C 113.46875 150.863281 113.46875 150.207031 113.863281 149.808594 L 115.050781 148.621094 C 112.9375 145.851562 111.621094 142.550781 111.09375 138.988281 L 109.375 138.988281 C 108.714844 138.988281 108.320312 138.59375 108.320312 137.933594 Z M 108.320312 133.972656 " fill-opacity="1" fill-rule="nonzero"/></g><path fill="#ff5757" d="M 132.074219 151.789062 C 140.785156 151.789062 147.910156 144.664062 147.910156 135.953125 C 147.910156 127.242188 140.785156 120.117188 132.074219 120.117188 C 123.363281 120.117188 116.238281 127.242188 116.238281 135.953125 C 116.238281 144.664062 123.363281 151.789062 132.074219 151.789062 Z M 132.074219 125.394531 C 137.878906 125.394531 142.632812 130.148438 142.632812 135.953125 C 142.632812 141.757812 137.878906 146.511719 132.074219 146.511719 C 126.269531 146.511719 121.515625 141.757812 121.515625 135.953125 C 121.515625 130.148438 126.269531 125.394531 132.074219 125.394531 Z M 132.074219 125.394531 " fill-opacity="1" fill-rule="nonzero"/><path fill="#ff5757" d="M 239.097656 100.324219 L 245.300781 100.324219 C 238.699219 89.371094 229.199219 80.394531 217.71875 74.589844 C 217.71875 74.855469 217.71875 74.984375 217.71875 75.25 C 217.71875 76.964844 217.585938 78.679688 217.324219 80.265625 C 226.164062 85.148438 233.6875 92.007812 239.097656 100.324219 Z M 239.097656 100.324219 " fill-opacity="1" fill-rule="nonzero"/><g clip-path="url(#f6c3f76ef8)"><path fill="#ff5757" d="M 264.039062 110.878906 L 258.628906 110.878906 C 257.96875 107.84375 255.328125 105.601562 252.160156 105.601562 L 238.964844 105.601562 C 235.796875 105.601562 233.160156 107.84375 232.5 110.878906 L 227.089844 110.878906 C 222.734375 110.878906 219.171875 114.441406 219.171875 118.796875 L 219.171875 158.386719 C 219.171875 162.742188 222.734375 166.304688 227.089844 166.304688 L 264.039062 166.304688 C 268.394531 166.304688 271.957031 162.742188 271.957031 158.386719 L 271.957031 118.796875 C 271.957031 114.441406 268.394531 110.878906 264.039062 110.878906 Z M 237.644531 112.199219 C 237.644531 111.40625 238.171875 110.878906 238.964844 110.878906 L 252.160156 110.878906 C 252.953125 110.878906 253.480469 111.40625 253.480469 112.199219 L 253.480469 114.839844 C 253.480469 115.628906 252.953125 116.160156 252.160156 116.160156 L 238.964844 116.160156 C 238.171875 116.160156 237.644531 115.628906 237.644531 114.839844 Z M 266.675781 158.386719 C 266.675781 159.839844 265.488281 161.027344 264.039062 161.027344 L 227.089844 161.027344 C 225.636719 161.027344 224.449219 159.839844 224.449219 158.386719 L 224.449219 118.796875 C 224.449219 117.347656 225.636719 116.160156 227.089844 116.160156 L 232.5 116.160156 C 233.160156 119.195312 235.796875 121.4375 238.964844 121.4375 L 252.160156 121.4375 C 255.328125 121.4375 257.96875 119.195312 258.628906 116.160156 L 264.039062 116.160156 C 265.488281 116.160156 266.675781 117.347656 266.675781 118.796875 Z M 266.675781 158.386719 " fill-opacity="1" fill-rule="nonzero"/></g><path fill="#ff5757" d="M 256.121094 126.714844 L 235.007812 126.714844 C 233.554688 126.714844 232.367188 127.902344 232.367188 129.355469 C 232.367188 130.808594 233.554688 131.996094 235.007812 131.996094 L 256.121094 131.996094 C 257.570312 131.996094 258.757812 130.808594 258.757812 129.355469 C 258.757812 127.902344 257.570312 126.714844 256.121094 126.714844 Z M 256.121094 126.714844 " fill-opacity="1" fill-rule="nonzero"/><path fill="#ff5757" d="M 256.121094 137.273438 L 235.007812 137.273438 C 233.554688 137.273438 232.367188 138.460938 232.367188 139.914062 C 232.367188 141.363281 233.554688 142.550781 235.007812 142.550781 L 256.121094 142.550781 C 257.570312 142.550781 258.757812 141.363281 258.757812 139.914062 C 258.757812 138.460938 257.570312 137.273438 256.121094 137.273438 Z M 256.121094 137.273438 " fill-opacity="1" fill-rule="nonzero"/><path fill="#ff5757" d="M 256.121094 147.828125 L 235.007812 147.828125 C 233.554688 147.828125 232.367188 149.019531 232.367188 150.46875 C 232.367188 151.921875 233.554688 153.109375 235.007812 153.109375 L 256.121094 153.109375 C 257.570312 153.109375 258.757812 151.921875 258.757812 150.46875 C 258.757812 149.019531 257.570312 147.828125 256.121094 147.828125 Z M 256.121094 147.828125 " fill-opacity="1" fill-rule="nonzero"/><path fill="#ff5757" d="M 134.054688 101.644531 C 134.316406 101.644531 134.582031 101.644531 134.84375 101.644531 C 140.386719 92.800781 148.171875 85.410156 157.410156 80.265625 C 157.277344 78.679688 157.148438 76.964844 157.148438 75.25 C 157.148438 74.984375 157.148438 74.855469 157.148438 74.589844 C 145.269531 80.660156 135.375 90.160156 128.773438 101.773438 C 129.171875 101.773438 129.566406 101.644531 129.960938 101.644531 Z M 134.054688 101.644531 " fill-opacity="1" fill-rule="nonzero"/><g clip-path="url(#2ed6503245)"><path fill="#ff5757" d="M 243.714844 171.582031 L 237.382812 171.582031 C 233.160156 177.390625 227.878906 182.273438 221.808594 186.363281 C 218.113281 184.78125 214.289062 183.0625 211.382812 181.875 C 209.667969 181.085938 208.347656 180.558594 207.425781 180.160156 L 205.183594 172.902344 C 210.59375 166.042969 213.890625 156.40625 213.890625 147.566406 C 213.890625 131.730469 202.675781 118.796875 188.820312 118.796875 C 174.960938 118.796875 163.746094 131.730469 163.746094 147.566406 C 163.746094 156.40625 167.042969 166.042969 172.457031 172.902344 L 170.210938 180.027344 C 169.421875 180.425781 167.96875 180.953125 166.253906 181.746094 C 162.953125 183.195312 158.46875 185.175781 154.242188 186.890625 C 147.25 182.40625 141.179688 176.730469 136.5625 169.867188 C 135.769531 170 134.976562 170.132812 134.054688 170.132812 L 130.359375 170.132812 C 135.109375 177.652344 141.179688 184.121094 148.4375 189.265625 C 145.269531 190.585938 142.894531 191.640625 142.5 191.773438 C 141.707031 192.039062 141.046875 192.699219 140.914062 193.488281 L 134.714844 215.527344 C 134.449219 216.320312 134.714844 217.242188 135.109375 217.902344 C 135.503906 218.5625 136.429688 218.957031 137.222656 218.957031 L 240.152344 218.957031 C 240.945312 218.957031 241.734375 218.5625 242.265625 217.902344 C 242.792969 217.242188 242.925781 216.453125 242.660156 215.527344 L 236.457031 193.488281 C 236.195312 192.699219 235.664062 192.039062 234.875 191.773438 C 234.476562 191.640625 231.3125 190.324219 227.351562 188.476562 C 233.820312 183.988281 239.359375 178.183594 243.714844 171.582031 Z M 169.023438 147.566406 C 169.023438 134.632812 177.867188 124.078125 188.820312 124.078125 C 199.773438 124.078125 208.613281 134.632812 208.613281 147.566406 C 208.613281 160.5 199.773438 176.863281 188.820312 176.863281 C 177.867188 176.863281 169.023438 160.628906 169.023438 147.566406 Z M 231.839844 196.394531 L 236.722656 213.8125 L 140.785156 213.8125 L 145.667969 196.394531 C 148.042969 195.335938 153.847656 192.960938 168.230469 186.628906 C 173.511719 184.382812 173.511719 184.253906 173.90625 184.121094 C 174.300781 183.722656 174.699219 183.328125 174.832031 182.800781 L 176.546875 177.257812 C 180.109375 180.292969 184.332031 182.140625 188.6875 182.140625 C 193.042969 182.140625 197.265625 180.292969 200.828125 177.257812 L 202.542969 182.800781 C 202.675781 183.328125 203.070312 183.855469 203.464844 184.121094 C 203.730469 184.382812 203.863281 184.382812 209.007812 186.628906 C 223.65625 192.828125 229.464844 195.335938 231.839844 196.394531 Z M 231.839844 196.394531 " fill-opacity="1" fill-rule="nonzero"/></g><g fill="#000000" fill-opacity="1"><g transform="translate(86.883435, 289.589806)"><g><path d="M 8.21875 0 L 3.4375 0 L 3.4375 -26.40625 L 10.265625 -26.40625 L 16.953125 -6.984375 L 17.328125 -6.984375 L 23.96875 -26.40625 L 30.640625 -26.40625 L 30.640625 0 L 25.6875 0 L 25.6875 -17.453125 L 25.234375 -17.53125 L 19.125 0 L 14.78125 0 L 8.671875 -17.53125 L 8.21875 -17.453125 Z M 8.21875 0 "/></g></g></g><g fill="#000000" fill-opacity="1"><g transform="translate(120.971148, 289.589806)"><g><path d="M 25.34375 0 L 19.859375 0 L 17.875 -6.09375 L 7.75 -6.09375 L 5.765625 0 L 0.390625 0 L 9.515625 -26.40625 L 16.21875 -26.40625 Z M 12.5625 -20.90625 L 9.15625 -10.484375 L 16.421875 -10.484375 L 13.015625 -20.90625 Z M 12.5625 -20.90625 "/></g></g></g><g fill="#000000" fill-opacity="1"><g transform="translate(146.713063, 289.589806)"><g><path d="M 8.484375 0 L 3.4375 0 L 3.4375 -26.40625 L 9.40625 -26.40625 L 20.015625 -9.390625 L 20.484375 -9.46875 L 20.484375 -26.40625 L 25.515625 -26.40625 L 25.515625 0 L 20.15625 0 L 8.9375 -18.171875 L 8.484375 -18.109375 Z M 8.484375 0 "/></g></g></g><g fill="#000000" fill-opacity="1"><g transform="translate(175.670459, 289.589806)"><g><path d="M 25.34375 0 L 19.859375 0 L 17.875 -6.09375 L 7.75 -6.09375 L 5.765625 0 L 0.390625 0 L 9.515625 -26.40625 L 16.21875 -26.40625 Z M 12.5625 -20.90625 L 9.15625 -10.484375 L 16.421875 -10.484375 L 13.015625 -20.90625 Z M 12.5625 -20.90625 "/></g></g></g><g fill="#000000" fill-opacity="1"><g transform="translate(201.412374, 289.589806)"><g><path d="M 12.828125 0.375 C 10.617188 0.375 8.710938 -0.125 7.109375 -1.125 C 5.503906 -2.132812 4.265625 -3.648438 3.390625 -5.671875 C 2.515625 -7.703125 2.078125 -10.210938 2.078125 -13.203125 C 2.078125 -16.210938 2.597656 -18.734375 3.640625 -20.765625 C 4.691406 -22.796875 6.144531 -24.304688 8 -25.296875 C 9.863281 -26.296875 12.023438 -26.796875 14.484375 -26.796875 C 17.015625 -26.796875 19.171875 -26.320312 20.953125 -25.375 C 22.734375 -24.4375 23.988281 -23.039062 24.71875 -21.1875 L 20.90625 -18.875 L 20.453125 -18.890625 C 19.910156 -20.078125 19.144531 -20.941406 18.15625 -21.484375 C 17.175781 -22.023438 15.953125 -22.296875 14.484375 -22.296875 C 12.210938 -22.296875 10.472656 -21.570312 9.265625 -20.125 C 8.066406 -18.6875 7.46875 -16.378906 7.46875 -13.203125 C 7.46875 -10.015625 8.03125 -7.695312 9.15625 -6.25 C 10.28125 -4.800781 11.941406 -4.078125 14.140625 -4.078125 C 16.046875 -4.078125 17.445312 -4.503906 18.34375 -5.359375 C 19.25 -6.222656 19.703125 -7.503906 19.703125 -9.203125 L 19.703125 -10.328125 L 13.453125 -10.328125 L 13.453125 -14.578125 L 24.890625 -14.578125 L 24.890625 0 L 19.90625 0 L 19.90625 -3.546875 L 19.53125 -3.59375 C 18.988281 -2.332031 18.164062 -1.351562 17.0625 -0.65625 C 15.957031 0.03125 14.546875 0.375 12.828125 0.375 Z M 12.828125 0.375 "/></g></g></g><g fill="#000000" fill-opacity="1"><g transform="translate(228.960738, 289.589806)"><g><path d="M 8.65625 -11.59375 L 8.65625 -4.375 L 21.265625 -4.375 L 21.265625 0 L 3.4375 0 L 3.4375 -26.40625 L 20.96875 -26.40625 L 20.96875 -22.046875 L 8.65625 -22.046875 L 8.65625 -15.859375 L 19.421875 -15.859375 L 19.421875 -11.59375 Z M 8.65625 -11.59375 "/></g></g></g><g fill="#000000" fill-opacity="1"><g transform="translate(251.667818, 289.589806)"><g/></g></g><g fill="#000000" fill-opacity="1"><g transform="translate(260.392976, 289.589806)"><g><path d="M 8.65625 0 L 3.4375 0 L 3.4375 -26.40625 L 8.65625 -26.40625 Z M 8.65625 0 "/></g></g></g><g fill="#000000" fill-opacity="1"><g transform="translate(272.496189, 289.589806)"><g><path d="M 21.171875 -26.40625 L 21.171875 -22.015625 L 13.546875 -22.015625 L 13.546875 0 L 8.34375 0 L 8.34375 -22.015625 L 0.71875 -22.015625 L 0.71875 -26.40625 Z M 21.171875 -26.40625 "/></g></g></g></svg>