<svg width="72" height="60" viewBox="0 0 72 60" fill="none" xmlns="http://www.w3.org/2000/svg">
<path d="M67.5 11.1592V50.2529H4.5V11.1592C4.5 10.3829 5.13 9.75293 5.90625 9.75293H66.0938C66.87 9.75293 67.5 10.3829 67.5 11.1592Z" fill="#5680A6"/>
<path d="M67.5 47.3561V50.2529H4.5V11.1592C4.5 10.3829 5.13 9.75293 5.90625 9.75293H11.7436V47.3561H67.5Z" fill="#3C6682"/>
<path d="M62.9997 51.659H9V15.2373C9 14.6936 9.44072 14.2529 9.98438 14.2529H62.0153C62.559 14.2529 62.9997 14.6936 62.9997 15.2373V51.659Z" fill="#C8EFFE"/>
<path d="M62.9989 47.3548V51.6585H9V15.2363C9 14.6927 9.44072 14.252 9.98438 14.252H11.7423V47.3547H62.9989V47.3548Z" fill="#99E6FC"/>
<path d="M15.75 0.74707H56.2499V50.2424H15.75V0.74707Z" fill="white"/>
<path d="M56.2497 50.2424H15.75V1.73145C15.75 1.18779 16.1907 0.74707 16.7344 0.74707H55.2653C55.809 0.74707 56.2497 1.18779 56.2497 1.73145V50.2424Z" fill="#F2FBFF"/>
<path d="M56.2497 47.3454V51.6491H15.75V1.73242C15.75 1.18877 16.1907 0.748047 16.7344 0.748047H18.6474V47.3454H56.2497Z" fill="#DFF6FD"/>
<path d="M35.9997 28.2621C42.2117 28.2621 47.2475 23.2263 47.2475 17.0144C47.2475 10.8024 42.2117 5.7666 35.9997 5.7666C29.7877 5.7666 24.752 10.8024 24.752 17.0144C24.752 23.2263 29.7877 28.2621 35.9997 28.2621Z" fill="#FD8087"/>
<path d="M41.7355 14.7665H39.2638C38.7037 14.7665 38.2497 14.3124 38.2497 13.7524V11.2806C38.2497 10.7205 37.7956 10.2666 37.2357 10.2666H34.7639C34.2038 10.2666 33.7499 10.7207 33.7499 11.2806V13.7524C33.7499 14.3125 33.2958 14.7665 32.7358 14.7665H30.264C29.7039 14.7665 29.25 15.2205 29.25 15.7805V18.2523C29.25 18.8124 29.7041 19.2663 30.264 19.2663H32.7358C33.2959 19.2663 33.7499 19.7204 33.7499 20.2804V22.7521C33.7499 23.3122 34.2039 23.7662 34.7639 23.7662H37.2357C37.7958 23.7662 38.2497 23.3121 38.2497 22.7521V20.2804C38.2497 19.7203 38.7038 19.2663 39.2638 19.2663H41.7355C42.2956 19.2663 42.7496 18.8122 42.7496 18.2523V15.7805C42.7496 15.2205 42.2955 14.7665 41.7355 14.7665Z" fill="#F2FBFF"/>
<path d="M45.0002 33.339H27.0005C26.4003 33.339 25.9141 32.8525 25.9141 32.2525C25.9141 31.6524 26.4005 31.166 27.0005 31.166H45.0002C45.6004 31.166 46.0867 31.6524 46.0867 32.2525C46.0867 32.8525 45.6004 33.339 45.0002 33.339Z" fill="#5680A6"/>
<path d="M45.0002 37.8331H27.0005C26.4003 37.8331 25.9141 37.3467 25.9141 36.7466C25.9141 36.1466 26.4005 35.6602 27.0005 35.6602H45.0002C45.6004 35.6602 46.0867 36.1466 46.0867 36.7466C46.0867 37.3467 45.6004 37.8331 45.0002 37.8331Z" fill="#5680A6"/>
<path d="M45.0002 42.339H27.0005C26.4003 42.339 25.9141 41.8525 25.9141 41.2525C25.9141 40.6524 26.4005 40.166 27.0005 40.166H45.0002C45.6004 40.166 46.0867 40.6524 46.0867 41.2525C46.0867 41.8525 45.6004 42.339 45.0002 42.339Z" fill="#5680A6"/>
<path d="M45.0002 46.8331H27.0005C26.4003 46.8331 25.9141 46.3467 25.9141 45.7466C25.9141 45.1466 26.4005 44.6602 27.0005 44.6602H45.0002C45.6004 44.6602 46.0867 45.1466 46.0867 45.7466C46.0867 46.3467 45.6004 46.8331 45.0002 46.8331Z" fill="#5680A6"/>
<path d="M72 52.3623V57.1436C72 58.3079 71.055 59.2529 69.8906 59.2529H2.10938C0.945 59.2529 0 58.3079 0 57.1436V52.3623C0 51.1979 0.945 50.2529 2.10938 50.2529H27L28.2656 51.6592H43.5938L45 50.2529H69.8906C71.055 50.2529 72 51.1979 72 52.3623Z" fill="#5680A6"/>
<path d="M6.51937 59.2515L6.51656 59.2529H2.10938C0.945 59.2529 0 58.3079 0 57.1436V52.3623C0 51.1979 0.945 50.2529 2.10938 50.2529H6.51937C5.31984 50.2529 4.34672 51.2261 4.34672 52.4256V57.0789C4.34672 58.2798 5.31984 59.2515 6.51937 59.2515Z" fill="#497090"/>
<path d="M44.0156 54.7529H27.9844C27.4407 54.7529 27 54.3122 27 53.7686V50.2529H44.9999V53.7686C45 54.3122 44.5593 54.7529 44.0156 54.7529Z" fill="#3D6682"/>
</svg>
