
<svg width="74" height="74" viewBox="0 0 74 74" fill="none" xmlns="http://www.w3.org/2000/svg">
<g clip-path="url(#clip0_968_3263)">
<path d="M15.2383 37.0003C15.2383 49 25.0007 58.7633 37.0013 58.7633L39.1776 37.0003L37.0013 15.2373C25.0015 15.2373 15.2383 24.9998 15.2383 37.0003Z" fill="#565686"/>
<path d="M58.763 37.0003C58.763 25.0006 49.0006 15.2373 37 15.2373V58.7633C48.9998 58.7633 58.763 49.0009 58.763 37.0003Z" fill="#454572"/>
<path d="M34.825 23.9424C34.825 22.4676 34.825 21.2004 34.825 19.7256C31.7325 20.113 28.8058 21.3275 26.3312 23.2525L29.3069 26.2282C28.2305 27.3046 27.3056 28.2296 26.2292 29.306C25.1885 28.2652 24.2942 27.3709 23.2535 26.3302C21.3321 28.8002 20.1147 31.7257 19.7266 34.824H23.9434V39.1766C22.4686 39.1766 21.2014 39.1766 19.7266 39.1766C20.1139 42.2692 21.3285 45.1957 23.2535 47.6704C24.2942 46.6296 25.1885 45.7354 26.2292 44.6947C27.3056 45.7711 28.2305 46.696 29.3069 47.7724C28.2662 48.8131 27.3719 49.7073 26.3312 50.7482C28.801 52.6694 31.7267 53.887 34.825 54.2751C34.825 52.8003 34.825 51.5329 34.825 50.0581H37.0013L39.1776 37.0003L37.0013 23.9425C36.2402 23.9424 35.5861 23.9424 34.825 23.9424Z" fill="#F9F2F8"/>
<path d="M39.1763 54.2751C42.2688 53.8877 45.1955 52.6732 47.67 50.7482C46.6293 49.7073 45.7351 48.8131 44.6944 47.7724L47.7721 44.6947C48.8128 45.7354 49.707 46.6296 50.7477 47.6704C52.6691 45.2005 53.8866 42.275 54.2746 39.1766C52.7999 39.1766 51.5328 39.1766 50.0579 39.1766C50.0579 37.6544 50.0579 36.3463 50.0579 34.824H54.2746C53.8872 31.7315 52.6727 28.8048 50.7477 26.3302C49.707 27.3709 48.8128 28.2652 47.7721 29.3059C46.6957 28.2296 45.7708 27.3046 44.6944 26.2282C45.7351 25.1875 46.6293 24.2932 47.67 23.2525C45.2002 21.3313 42.2746 20.1137 39.1763 19.7256V23.9424C38.4152 23.9424 37.7611 23.9424 37 23.9424V50.058H39.1763V54.2751Z" fill="#ECEAE7"/>
<path d="M34.8242 28.2949V39.1764H37.0005L38.6327 35.3679L37.0005 28.2949C36.2394 28.2949 35.5853 28.2949 34.8242 28.2949Z" fill="#FF8659"/>
<path d="M43.5289 34.8238C42.0067 34.8238 40.6985 34.8238 39.1763 34.8238C39.1763 32.6503 39.1763 30.4685 39.1763 28.2949C38.4152 28.2949 37.7611 28.2949 37 28.2949V39.1764H43.5289C43.5289 37.6542 43.5289 36.3461 43.5289 34.8238Z" fill="#FF405C"/>
<path d="M18.3471 63.7979H21.6129C21.6129 62.2757 21.6129 60.9676 21.6129 59.4453C20.2325 59.4453 11.5926 59.4453 10.2031 59.4453V70.8549H14.5557C14.5557 69.3021 14.5557 67.9677 14.5557 66.4147C20.8332 71.225 28.6077 73.9966 37.0015 73.9966L39.1778 71.8203L37.0015 69.644C30.2796 69.644 23.8179 67.6234 18.3471 63.7979Z" fill="#4285F4"/>
<path d="M68.8713 18.2061C67.5608 18.9805 66.4346 19.6459 65.124 20.4204C72.553 32.9929 70.7995 49.345 60.0723 60.0724C54.1611 65.9835 46 69.6446 37 69.6446V73.9972C46.8819 73.9972 56.1728 70.1493 63.1609 63.161C75.4645 50.8572 77.1878 32.2808 68.8713 18.2061Z" fill="#1359CD"/>
<path d="M10.8386 10.8392C-1.4936 23.1715 -3.1666 41.7564 5.12815 55.7941C6.43872 55.0196 7.56488 54.3543 8.87545 53.5798C1.44571 41.0063 3.20517 24.6495 13.9272 13.9278C19.8382 8.01665 27.9993 4.35553 36.9995 4.35553L39.1758 2.17923L36.9995 0.00292969C27.1176 0.00292969 17.8267 3.85121 10.8386 10.8392Z" fill="#00E4EF"/>
<path d="M52.3889 10.2018V14.5544H63.7985C63.7985 13.174 63.7985 4.53413 63.7985 3.14464C62.2763 3.14464 60.9682 3.14464 59.4459 3.14464V7.58501C53.1686 2.77452 45.394 0.00292969 37 0.00292969V4.35553C43.7217 4.35553 50.1834 6.37601 55.6545 10.2018C54.5123 10.2018 53.531 10.2018 52.3889 10.2018Z" fill="#2EBEEF"/>
</g>
<defs>
<clipPath id="clip0_968_3263">
<rect width="74" height="74" fill="white"/>
</clipPath>
</defs>
</svg>
