
<svg width="72" height="72" viewBox="0 0 72 72" fill="none" xmlns="http://www.w3.org/2000/svg">
<path d="M42.75 55.125V56.25H37.125V50.625H38.25C39.4427 50.6277 40.5857 51.1026 41.429 51.946C42.2724 52.7893 42.7473 53.9323 42.75 55.125Z" fill="#FFC477"/>
<path d="M37.125 50.625V56.25H35.6738C34.7786 56.25 33.9037 55.9836 33.1604 55.4847C32.4172 54.9859 31.8392 54.2772 31.5 53.4487C31.5 53.4375 31.4888 53.4375 31.4888 53.4263L28.125 45H28.1025V56.25H7.875C6.68153 56.25 5.53694 55.7759 4.69302 54.932C3.84911 54.0881 3.375 52.9435 3.375 51.75V45.675C3.37337 43.8277 3.94191 42.025 5.00301 40.5129C6.06411 39.0007 7.56604 37.853 9.30375 37.2263L15.75 34.875C15.75 35.7701 16.1056 36.6285 16.7385 37.2615C17.3715 37.8944 18.2299 38.25 19.125 38.25C20.0201 38.25 20.8786 37.8944 21.5115 37.2615C22.1444 36.6285 22.5 35.7701 22.5 34.875L29.79 38.115C30.6797 38.5087 31.4734 39.0908 32.1163 39.8211C32.7592 40.5514 33.236 41.4125 33.5138 42.345L36 50.625H37.125Z" fill="#3D9AE2"/>
<path d="M22.5 30.375V34.875C22.5 35.7701 22.1444 36.6285 21.5115 37.2615C20.8786 37.8944 20.0201 38.25 19.125 38.25C18.2299 38.25 17.3714 37.8944 16.7385 37.2615C16.1056 36.6285 15.75 35.7701 15.75 34.875V30.375H22.5Z" fill="#FFC477"/>
<path d="M69.3113 38.6213L66.69 54.3713C66.601 54.8953 66.3299 55.371 65.9244 55.7147C65.519 56.0584 65.0053 56.248 64.4738 56.25H47.25L50.625 36H67.095C67.4216 36.0004 67.7443 36.072 68.0405 36.2096C68.3367 36.3473 68.5994 36.5479 68.8103 36.7973C69.0212 37.0467 69.1752 37.3391 69.2617 37.6541C69.3482 37.969 69.3651 38.2991 69.3113 38.6213Z" fill="#C6C5CA"/>
<path d="M3.375 56.25H68.625V60.75H3.375V56.25Z" fill="#A97C50"/>
<path d="M68.625 5.625V23.625C68.6232 24.2212 68.3856 24.7925 67.964 25.214C67.5425 25.6356 66.9712 25.8732 66.375 25.875H54L50.625 30.375L47.25 25.875H39.375C38.7788 25.8732 38.2075 25.6356 37.786 25.214C37.3644 24.7925 37.1268 24.2212 37.125 23.625V5.625C37.1268 5.02881 37.3644 4.45755 37.786 4.03598C38.2075 3.61441 38.7788 3.37678 39.375 3.375H66.375C66.9712 3.37678 67.5425 3.61441 67.964 4.03598C68.3856 4.45755 68.6232 5.02881 68.625 5.625Z" fill="#00CCB3"/>
<path d="M6.75 60.75H65.25V68.625H6.75V60.75Z" fill="#A97C50"/>
<path d="M58.5 48.375C59.7426 48.375 60.75 47.3676 60.75 46.125C60.75 44.8824 59.7426 43.875 58.5 43.875C57.2574 43.875 56.25 44.8824 56.25 46.125C56.25 47.3676 57.2574 48.375 58.5 48.375Z" fill="#E6E7E8"/>
<path d="M50.625 36L47.25 56.25H42.75L43.5037 51.75L45.6525 38.8237C45.7831 38.0349 46.1895 37.318 46.7994 36.8009C47.4092 36.2837 48.1829 35.9999 48.9825 36H50.625Z" fill="#ACABB1"/>
<path d="M43.5037 51.75L42.75 56.25H33.75C33.1538 56.2482 32.5825 56.0106 32.161 55.589C31.7394 55.1675 31.5018 54.5962 31.5 54V51.75H43.5037Z" fill="#ACABB1"/>
<path d="M29.25 9V14.7037C26.28 15.0862 24.7163 15.75 21.375 15.75C17.6288 15.75 18.3712 14.625 14.625 14.625V16.875C14.6232 17.4712 14.3856 18.0425 13.964 18.464C13.5425 18.8856 12.9712 19.1232 12.375 19.125H11.25V13.5C11.25 12.3065 11.7241 11.1619 12.568 10.318C13.4119 9.47411 14.5565 9 15.75 9H29.25Z" fill="#57565C"/>
<path d="M6.75 60.75H65.25V63H6.75V60.75Z" fill="#8B5E3C"/>
<path d="M11.25 19.125H10.6875C9.94158 19.125 9.22621 19.4213 8.69876 19.9488C8.17132 20.4762 7.875 21.1916 7.875 21.9375C7.875 22.6834 8.17132 23.3988 8.69876 23.9262C9.22621 24.4537 9.94158 24.75 10.6875 24.75H12.375V19.125H11.25Z" fill="#FFB655"/>
<path d="M22.5 30.375V34.5938C21.7643 34.7792 21.0087 34.8737 20.25 34.875C18.6683 34.8802 17.1141 34.4606 15.75 33.66V30.375H22.5Z" fill="#FFB655"/>
<path d="M29.25 14.7037V23.625C29.2498 25.6207 28.5868 27.5599 27.3651 29.138C26.1434 30.7161 24.4321 31.8437 22.5 32.3437C21.7643 32.5292 21.0087 32.6237 20.25 32.625C18.6683 32.6302 17.1141 32.2106 15.75 31.41C15.0652 31.0258 14.4367 30.5488 13.8825 29.9925C12.4727 28.5757 11.5709 26.7326 11.3175 24.75C11.2723 24.3767 11.2497 24.001 11.25 23.625V19.125H12.375C12.9712 19.1232 13.5425 18.8856 13.964 18.464C14.3856 18.0425 14.6232 17.4712 14.625 16.875V14.625C18.3713 14.625 17.6288 15.75 21.375 15.75C24.7163 15.75 26.28 15.0862 29.25 14.7037Z" fill="#FFC477"/>
<path d="M16.875 20.25H19.125V22.5H16.875V20.25Z" fill="#EE8700"/>
<path d="M23.625 20.25H25.875V22.5H23.625V20.25Z" fill="#EE8700"/>
<path d="M42.75 9H63V11.25H42.75V9Z" fill="#00B39D"/>
<path d="M42.75 13.5H63V15.75H42.75V13.5Z" fill="#00B39D"/>
<path d="M42.75 18H63V20.25H42.75V18Z" fill="#00B39D"/>
<path d="M16.8633 46.2988L19.0818 45.9298L20.2041 52.6774L17.9856 53.0464L16.8633 46.2988Z" fill="#E6E7E8"/>
<path d="M7.875 43.875H10.125V50.625H7.875V43.875Z" fill="#1E81CE"/>
<path d="M21.375 55.1251V56.2501H15.75V50.6251H16.875C17.4714 50.6215 18.0619 50.7442 18.6075 50.9851C19.4282 51.3218 20.1298 51.8955 20.6228 52.6329C21.1157 53.3704 21.3776 54.238 21.375 55.1251Z" fill="#FFC477"/>
</svg>
