
<svg width="72" height="72" viewBox="0 0 72 72" fill="none" xmlns="http://www.w3.org/2000/svg">
<path d="M45.6178 38.384L45.0283 38.0589C44.8586 37.9708 44.7197 37.833 44.6303 37.664C44.5408 37.495 44.505 37.3027 44.5277 37.1128C44.6342 36.3748 44.6342 35.6255 44.5277 34.8875C44.505 34.6976 44.5408 34.5053 44.6303 34.3363C44.7197 34.1673 44.8586 34.0295 45.0283 33.9414L45.6178 33.6163C45.732 33.556 45.8327 33.4732 45.9138 33.3727C45.995 33.2723 46.0548 33.1563 46.0896 33.032C46.1245 32.9077 46.1336 32.7776 46.1165 32.6496C46.0994 32.5216 46.0564 32.3985 45.9902 32.2876L44.3589 29.5876C44.2167 29.3619 43.9935 29.1993 43.735 29.1332C43.4766 29.067 43.2027 29.1025 42.9696 29.2321L42.3733 29.5606C42.1914 29.6569 41.9858 29.6992 41.7807 29.6825C41.5756 29.6657 41.3795 29.5907 41.2157 29.4661C40.6282 29.0352 39.9887 28.6803 39.3122 28.4098C39.123 28.3419 38.9587 28.2187 38.8405 28.0562C38.7223 27.8937 38.6558 27.6994 38.6496 27.4985V26.8471C38.6433 26.5843 38.5334 26.3345 38.3437 26.1524C38.154 25.9703 37.9 25.8706 37.637 25.8751H34.3746C34.1116 25.8706 33.8576 25.9703 33.6679 26.1524C33.4782 26.3345 33.3683 26.5843 33.362 26.8471V27.4985C33.3558 27.6994 33.2893 27.8937 33.1711 28.0562C33.0529 28.2187 32.8886 28.3419 32.6994 28.4098C32.023 28.6803 31.3834 29.0352 30.7959 29.4661C30.6321 29.5907 30.436 29.6657 30.2309 29.6825C30.0258 29.6992 29.8202 29.6569 29.6383 29.5606L29.042 29.2321C28.8089 29.1025 28.535 29.067 28.2766 29.1332C28.0181 29.1993 27.7949 29.3619 27.6527 29.5876L26.0214 32.2876C25.9552 32.3985 25.9122 32.5216 25.8951 32.6496C25.878 32.7776 25.8871 32.9077 25.922 33.032C25.9568 33.1563 26.0166 33.2723 26.0978 33.3727C26.1789 33.4732 26.2796 33.556 26.3938 33.6163L26.9833 33.9414C27.153 34.0295 27.2919 34.1673 27.3813 34.3363C27.4708 34.5053 27.5066 34.6976 27.4839 34.8875C27.3774 35.6255 27.3774 36.3748 27.4839 37.1128C27.5066 37.3027 27.4708 37.495 27.3813 37.664C27.2919 37.833 27.153 37.9708 26.9833 38.0589L26.3938 38.384C26.2796 38.4443 26.1789 38.5271 26.0978 38.6276C26.0166 38.728 25.9568 38.844 25.922 38.9683C25.8871 39.0926 25.878 39.2227 25.8951 39.3507C25.9122 39.4787 25.9552 39.6018 26.0214 39.7126L27.6527 42.4126C27.7949 42.6384 28.0181 42.801 28.2766 42.8671C28.535 42.9333 28.8089 42.8978 29.042 42.7681L29.6383 42.4396C29.8202 42.3433 30.0258 42.3011 30.2309 42.3178C30.436 42.3346 30.6321 42.4096 30.7959 42.5341C31.3834 42.9651 32.023 43.32 32.6994 43.5905C32.8886 43.6584 33.0529 43.7816 33.1711 43.9441C33.2893 44.1066 33.3558 44.3009 33.362 44.5018V45.1531C33.3683 45.416 33.4782 45.6658 33.6679 45.8479C33.8576 46.03 34.1116 46.1297 34.3746 46.1251H37.637C37.9 46.1297 38.154 46.03 38.3437 45.8479C38.5334 45.6658 38.6433 45.416 38.6496 45.1531V44.5018C38.6558 44.3009 38.7223 44.1066 38.8405 43.9441C38.9587 43.7816 39.123 43.6584 39.3122 43.5905C39.9887 43.32 40.6282 42.9651 41.2157 42.5341C41.3795 42.4096 41.5756 42.3346 41.7807 42.3178C41.9858 42.3011 42.1914 42.3433 42.3733 42.4396L42.9696 42.7681C43.2027 42.8978 43.4766 42.9333 43.735 42.8671C43.9935 42.801 44.2167 42.6384 44.3589 42.4126L45.9902 39.7126C46.0564 39.6018 46.0994 39.4787 46.1165 39.3507C46.1336 39.2227 46.1245 39.0926 46.0896 38.9683C46.0548 38.844 45.995 38.728 45.9138 38.6276C45.8327 38.5271 45.732 38.4443 45.6178 38.384ZM36.0013 39.797C35.2503 39.797 34.5163 39.5743 33.8919 39.1571C33.2675 38.7399 32.7808 38.1469 32.4934 37.4532C32.2061 36.7594 32.1309 35.9959 32.2774 35.2594C32.4239 34.5229 32.7855 33.8464 33.3165 33.3154C33.8475 32.7843 34.524 32.4227 35.2606 32.2762C35.9971 32.1297 36.7605 32.2049 37.4543 32.4923C38.1481 32.7797 38.7411 33.2663 39.1583 33.8907C39.5755 34.5151 39.7982 35.2492 39.7982 36.0001C39.7982 37.0071 39.3981 37.9729 38.6861 38.6849C37.974 39.397 37.0083 39.797 36.0013 39.797Z" fill="#596C80"/>
<path d="M36 19.125C40.9706 19.125 45 15.0956 45 10.125C45 5.15444 40.9706 1.125 36 1.125C31.0294 1.125 27 5.15444 27 10.125C27 15.0956 31.0294 19.125 36 19.125Z" fill="#3E9944"/>
<path d="M61.875 45C66.8456 45 70.875 40.9706 70.875 36C70.875 31.0294 66.8456 27 61.875 27C56.9044 27 52.875 31.0294 52.875 36C52.875 40.9706 56.9044 45 61.875 45Z" fill="#2970CC"/>
<path d="M10.125 45C15.0956 45 19.125 40.9706 19.125 36C19.125 31.0294 15.0956 27 10.125 27C5.15444 27 1.125 31.0294 1.125 36C1.125 40.9706 5.15444 45 10.125 45Z" fill="#D9575D"/>
<path d="M36 70.875C40.9706 70.875 45 66.8456 45 61.875C45 56.9044 40.9706 52.875 36 52.875C31.0294 52.875 27 56.9044 27 61.875C27 66.8456 31.0294 70.875 36 70.875Z" fill="#F2A130"/>
<path d="M37.6875 10.125C37.6875 9.19302 36.932 8.4375 36 8.4375C35.068 8.4375 34.3125 9.19302 34.3125 10.125C34.3125 11.057 35.068 11.8125 36 11.8125C36.932 11.8125 37.6875 11.057 37.6875 10.125Z" fill="#F2F2F2"/>
<path d="M60.75 36C60.75 35.068 59.9945 34.3125 59.0625 34.3125C58.1305 34.3125 57.375 35.068 57.375 36C57.375 36.932 58.1305 37.6875 59.0625 37.6875C59.9945 37.6875 60.75 36.932 60.75 36Z" fill="#F2F2F2"/>
<path d="M66.375 36C66.375 35.068 65.6195 34.3125 64.6875 34.3125C63.7555 34.3125 63 35.068 63 36C63 36.932 63.7555 37.6875 64.6875 37.6875C65.6195 37.6875 66.375 36.932 66.375 36Z" fill="#F2F2F2"/>
<path d="M34.875 64.125C34.875 63.193 34.1195 62.4375 33.1875 62.4375C32.2555 62.4375 31.5 63.193 31.5 64.125C31.5 65.057 32.2555 65.8125 33.1875 65.8125C34.1195 65.8125 34.875 65.057 34.875 64.125Z" fill="#F2F2F2"/>
<path d="M40.5 64.125C40.5 63.193 39.7445 62.4375 38.8125 62.4375C37.8805 62.4375 37.125 63.193 37.125 64.125C37.125 65.057 37.8805 65.8125 38.8125 65.8125C39.7445 65.8125 40.5 65.057 40.5 64.125Z" fill="#F2F2F2"/>
<path d="M37.6875 58.5C37.6875 57.568 36.932 56.8125 36 56.8125C35.068 56.8125 34.3125 57.568 34.3125 58.5C34.3125 59.432 35.068 60.1875 36 60.1875C36.932 60.1875 37.6875 59.432 37.6875 58.5Z" fill="#F2F2F2"/>
<path d="M9 38.8125C9 37.8805 8.24448 37.125 7.3125 37.125C6.38052 37.125 5.625 37.8805 5.625 38.8125C5.625 39.7445 6.38052 40.5 7.3125 40.5C8.24448 40.5 9 39.7445 9 38.8125Z" fill="#F2F2F2"/>
<path d="M14.625 38.8125C14.625 37.8805 13.8695 37.125 12.9375 37.125C12.0055 37.125 11.25 37.8805 11.25 38.8125C11.25 39.7445 12.0055 40.5 12.9375 40.5C13.8695 40.5 14.625 39.7445 14.625 38.8125Z" fill="#F2F2F2"/>
<path d="M9 33.1875C9 32.2555 8.24448 31.5 7.3125 31.5C6.38052 31.5 5.625 32.2555 5.625 33.1875C5.625 34.1195 6.38052 34.875 7.3125 34.875C8.24448 34.875 9 34.1195 9 33.1875Z" fill="#F2F2F2"/>
<path d="M14.625 33.1875C14.625 32.2555 13.8695 31.5 12.9375 31.5C12.0055 31.5 11.25 32.2555 11.25 33.1875C11.25 34.1195 12.0055 34.875 12.9375 34.875C13.8695 34.875 14.625 34.1195 14.625 33.1875Z" fill="#F2F2F2"/>
<path d="M9 15.75C9.00179 14.2587 9.59499 12.829 10.6495 11.7745C11.704 10.72 13.1337 10.1268 14.625 10.125H17.4375V13.5L23.4371 9L17.4375 4.5V7.875H14.625C12.5372 7.87738 10.5355 8.70783 9.05916 10.1842C7.58283 11.6605 6.75238 13.6622 6.75 15.75V23.625H9V15.75Z" fill="#7A8899"/>
<path d="M9 56.2496V54.5621H12.375L7.875 48.5625L3.375 54.5621H6.75V56.2496C6.75238 58.3375 7.58283 60.3391 9.05917 61.8155C10.5355 63.2918 12.5372 64.1222 14.625 64.1246H23.625V61.8746H14.625C13.1337 61.8728 11.704 61.2796 10.6495 60.2251C9.59499 59.1706 9.00179 57.7409 9 56.2496Z" fill="#7A8899"/>
<path d="M62.9996 56.25C62.9978 57.7413 62.4046 59.171 61.3501 60.2255C60.2956 61.28 58.8659 61.8732 57.3746 61.875H54.5621V58.5L48.5625 63L54.5621 67.5V64.125H57.3746C59.4625 64.1226 61.4641 63.2922 62.9405 61.8158C64.4168 60.3395 65.2472 58.3378 65.2496 56.25V48.375H62.9996V56.25Z" fill="#7A8899"/>
<path d="M63 15.75V17.4375H59.625L64.125 23.4371L68.625 17.4375H65.25V15.75C65.2476 13.6622 64.4172 11.6605 62.9408 10.1842C61.4645 8.70783 59.4628 7.87738 57.375 7.875H48.375V10.125H57.375C58.8663 10.1268 60.296 10.72 61.3505 11.7745C62.405 12.829 62.9982 14.2587 63 15.75Z" fill="#7A8899"/>
</svg>
