
<svg width="72" height="72" viewBox="0 0 72 72" fill="none" xmlns="http://www.w3.org/2000/svg">
<path fill-rule="evenodd" clip-rule="evenodd" d="M69.072 66.0388H13.8809C12.2666 66.0388 10.9531 64.7253 10.9531 63.111V7.03816C10.9531 5.42379 12.2666 4.11035 13.8809 4.11035H69.072C70.6864 4.11035 71.9998 5.42379 71.9998 7.03816V63.111C71.9998 64.7253 70.6864 66.0388 69.072 66.0388Z" fill="#31AAFF"/>
<path fill-rule="evenodd" clip-rule="evenodd" d="M69.0739 64.5872C69.8881 64.5872 70.5505 63.9235 70.5505 63.1107V17.6143H12.4062V63.1107C12.4062 63.9235 13.0686 64.5872 13.8828 64.5872H69.0739Z" fill="#E1EFFF"/>
<path fill-rule="evenodd" clip-rule="evenodd" d="M20.9134 15.1761H16.6553C15.7905 15.1761 15.0859 14.473 15.0859 13.6067V9.56938C15.0859 8.70453 15.7905 8 16.6553 8H20.9134C21.7783 8 22.4828 8.70453 22.4828 9.56938V13.6067C22.4828 14.473 21.7783 15.1761 20.9134 15.1761Z" fill="#FF6A6A"/>
<path fill-rule="evenodd" clip-rule="evenodd" d="M67.1427 11.9473H47.2569C46.8575 11.9473 46.5312 11.6225 46.5312 11.2217C46.5312 10.8209 46.8575 10.4961 47.2569 10.4961H67.1427C67.5434 10.4961 67.8683 10.8209 67.8683 11.2217C67.8683 11.6225 67.5434 11.9473 67.1427 11.9473Z" fill="white"/>
<path fill-rule="evenodd" clip-rule="evenodd" d="M30.8353 15.1761H26.5772C25.7123 15.1761 25.0078 14.473 25.0078 13.6067V9.56938C25.0078 8.70453 25.7123 8 26.5772 8H30.8353C31.7002 8 32.4047 8.70453 32.4047 9.56938V13.6067C32.4047 14.473 31.7002 15.1761 30.8353 15.1761Z" fill="#62DFAA"/>
<path fill-rule="evenodd" clip-rule="evenodd" d="M40.7597 15.1761H36.503C35.6367 15.1761 34.9336 14.473 34.9336 13.6067V9.56938C34.9336 8.70453 35.6367 8 36.503 8H40.7597C41.6259 8 42.3291 8.70453 42.3291 9.56938V13.6067C42.3291 14.473 41.6259 15.1761 40.7597 15.1761Z" fill="#AD79E4"/>
<path fill-rule="evenodd" clip-rule="evenodd" d="M30.4267 33.8131H21.7544C20.8698 33.8131 20.1484 33.0931 20.1484 32.2072V26.1294C20.1484 25.2434 20.8698 24.5234 21.7544 24.5234H30.4267C31.3112 24.5234 32.0327 25.2434 32.0327 26.1294V32.2072C32.0327 33.0931 31.3112 33.8131 30.4267 33.8131ZM61.1983 58.8781H52.5259C51.64 58.8781 50.92 58.1581 50.92 57.2736V51.1944C50.92 50.3098 51.64 49.5898 52.5259 49.5898H61.1983C62.0828 49.5898 62.8028 50.3098 62.8028 51.1944V57.2722C62.8028 58.1581 62.0828 58.8781 61.1983 58.8781ZM45.8125 58.8781H37.1402C36.2542 58.8781 35.5342 58.1581 35.5342 57.2736V51.1944C35.5342 50.3098 36.2542 49.5898 37.1402 49.5898H45.8125C46.697 49.5898 47.4184 50.3098 47.4184 51.1944V57.2722C47.4184 58.1581 46.697 58.8781 45.8125 58.8781ZM30.4267 58.8781H21.7544C20.8698 58.8781 20.1484 58.1581 20.1484 57.2736V51.1944C20.1484 50.3098 20.8698 49.5898 21.7544 49.5898H30.4267C31.3112 49.5898 32.0327 50.3098 32.0327 51.1944V57.2722C32.0327 58.1581 31.3112 58.8781 30.4267 58.8781ZM61.1983 46.3456H52.5259C51.64 46.3456 50.92 45.6256 50.92 44.7397V38.6619C50.92 37.7773 51.64 37.0559 52.5259 37.0559H61.1983C62.0828 37.0559 62.8028 37.7773 62.8028 38.6619V44.7397C62.8028 45.6256 62.0828 46.3456 61.1983 46.3456ZM45.8125 46.3456H37.1402C36.2542 46.3456 35.5342 45.6256 35.5342 44.7397V38.6619C35.5342 37.7773 36.2542 37.0559 37.1402 37.0559H45.8125C46.697 37.0559 47.4184 37.7773 47.4184 38.6619V44.7397C47.4184 45.6256 46.697 46.3456 45.8125 46.3456ZM30.4267 46.3456H21.7544C20.8698 46.3456 20.1484 45.6256 20.1484 44.7397V38.6619C20.1484 37.7773 20.8698 37.0559 21.7544 37.0559H30.4267C31.3112 37.0559 32.0327 37.7773 32.0327 38.6619V44.7397C32.0327 45.6256 31.3112 46.3456 30.4267 46.3456ZM61.1983 33.8131H52.5259C51.64 33.8131 50.92 33.0931 50.92 32.2072V26.1294C50.92 25.2434 51.64 24.5234 52.5259 24.5234H61.1983C62.0828 24.5234 62.8028 25.2434 62.8028 26.1294V32.2072C62.8028 33.0931 62.0828 33.8131 61.1983 33.8131ZM45.8125 33.8131H37.1402C36.2542 33.8131 35.5342 33.0931 35.5342 32.2072V26.1294C35.5342 25.2434 36.2542 24.5234 37.1402 24.5234H45.8125C46.697 24.5234 47.4184 25.2434 47.4184 26.1294V32.2072C47.4184 33.0931 46.697 33.8131 45.8125 33.8131Z" fill="#FF6E6E"/>
<path fill-rule="evenodd" clip-rule="evenodd" d="M9.29109 67.8893C4.16812 67.8893 0 63.7197 0 58.5968C0 53.4738 4.16812 49.3057 9.29109 49.3057C14.4155 49.3057 18.5836 53.4738 18.5836 58.5968C18.5836 63.7197 14.4155 67.8893 9.29109 67.8893Z" fill="#F9AF44"/>
<path fill-rule="evenodd" clip-rule="evenodd" d="M5.88602 61.7245C5.64133 61.7245 5.39664 61.6316 5.20961 61.4446L3.03836 59.2734C2.6643 58.8993 2.6643 58.2946 3.03836 57.9205L5.20961 55.7493C5.58367 55.3752 6.18836 55.3752 6.56242 55.7493C6.93508 56.122 6.93648 56.728 6.56242 57.1021L5.06758 58.597L6.56242 60.0918C6.93508 60.4659 6.93508 61.072 6.56242 61.4446C6.37539 61.6316 6.1307 61.7245 5.88602 61.7245Z" fill="white"/>
<path fill-rule="evenodd" clip-rule="evenodd" d="M12.6991 61.7245C12.4545 61.7245 12.2098 61.6316 12.0227 61.4446C11.6487 61.072 11.6487 60.4659 12.0227 60.0918L13.5176 58.597L12.0227 57.1021C11.6487 56.728 11.6487 56.122 12.0227 55.7493C12.3968 55.3752 13.0015 55.3752 13.3755 55.7493L15.5468 57.9205C15.9209 58.2946 15.9209 58.8993 15.5468 59.2734L13.3755 61.4446C13.1885 61.6316 12.9438 61.7245 12.6991 61.7245Z" fill="white"/>
<path fill-rule="evenodd" clip-rule="evenodd" d="M8.16898 63.7483C8.08742 63.7483 8.00304 63.737 7.92007 63.7159C7.40961 63.5781 7.10726 63.0536 7.24367 62.5431L9.49226 54.1549C9.62867 53.6458 10.1532 53.3434 10.6637 53.4784C11.1741 53.6163 11.4765 54.1408 11.3401 54.6513L9.09148 63.0395C8.97757 63.467 8.59086 63.7483 8.16898 63.7483Z" fill="white"/>
</svg>
