
<svg width="72" height="72" viewBox="0 0 72 72" fill="none" xmlns="http://www.w3.org/2000/svg">
<g clip-path="url(#clip0_968_3246)">
<path d="M48.9859 13.314V71.2654C48.9859 71.6713 48.6568 72.0003 48.251 72.0003H15.3501L1.17773 57.828V13.314C1.17773 12.9082 1.5068 12.5791 1.91264 12.5791H48.251C48.6568 12.5791 48.9859 12.9082 48.9859 13.314Z" fill="#DDEBFD"/>
<path d="M48.2505 12.5791H43.0352C43.441 12.5791 43.7701 12.9082 43.7701 13.314V71.2654C43.7701 71.6713 43.441 72.0003 43.0352 72.0003H48.2505C48.6564 72.0003 48.9854 71.6713 48.9854 71.2654V13.314C48.9854 12.9082 48.6564 12.5791 48.2505 12.5791Z" fill="#BED9FD"/>
<path d="M22.2118 24.3394H17.536C17.3574 24.3394 17.2127 24.1947 17.2127 24.0161V19.3403C17.2127 19.0726 16.9956 18.8555 16.7279 18.8555H11.9688C11.7011 18.8555 11.484 19.0726 11.484 19.3403V24.0161C11.484 24.1947 11.3392 24.3394 11.1607 24.3394H6.48487C6.21712 24.3394 6 24.5565 6 24.8243V29.5833C6 29.8511 6.21712 30.0682 6.48487 30.0682H11.1607C11.3392 30.0682 11.484 30.2129 11.484 30.3915V35.0673C11.484 35.335 11.7011 35.5522 11.9688 35.5522H16.7279C16.9956 35.5522 17.2127 35.335 17.2127 35.0673V30.3915C17.2127 30.2129 17.3574 30.0682 17.536 30.0682H22.2118C22.4796 30.0682 22.6967 29.8511 22.6967 29.5833V24.8243C22.6967 24.5565 22.4797 24.3394 22.2118 24.3394Z" fill="#DF646E"/>
<path d="M15.3501 72.0005V59.282C15.3501 58.4791 14.6991 57.8281 13.8961 57.8281H1.17773L15.3501 72.0005Z" fill="#BED9FD"/>
<path d="M42.0333 61.3546H20.6119C20.0118 61.3546 19.5254 60.8682 19.5254 60.2681C19.5254 59.6681 20.0118 59.1816 20.6119 59.1816H42.0333C42.6333 59.1816 43.1197 59.6681 43.1197 60.2681C43.1197 60.8682 42.6335 61.3546 42.0333 61.3546Z" fill="#407194"/>
<path d="M11.7775 44.877H7.12748C6.52744 44.877 6.04102 44.3906 6.04102 43.7906C6.04102 43.1905 6.52744 42.7041 7.12748 42.7041H11.7775C12.3776 42.7041 12.864 43.1905 12.864 43.7906C12.8641 44.3906 12.3776 44.877 11.7775 44.877Z" fill="#407194"/>
<path d="M42.0333 44.877H20.6119C20.0118 44.877 19.5254 44.3906 19.5254 43.7906C19.5254 43.1905 20.0118 42.7041 20.6119 42.7041H42.0333C42.6333 42.7041 43.1197 43.1905 43.1197 43.7906C43.1199 44.3906 42.6335 44.877 42.0333 44.877Z" fill="#407194"/>
<path d="M11.7775 53.1163H7.12748C6.52744 53.1163 6.04102 52.6299 6.04102 52.0298C6.04102 51.4298 6.52744 50.9434 7.12748 50.9434H11.7775C12.3776 50.9434 12.864 51.4298 12.864 52.0298C12.8641 52.6299 12.3776 53.1163 11.7775 53.1163Z" fill="#407194"/>
<path d="M42.0333 53.1163H20.6119C20.0118 53.1163 19.5254 52.6299 19.5254 52.0298C19.5254 51.4298 20.0118 50.9434 20.6119 50.9434H42.0333C42.6333 50.9434 43.1197 51.4298 43.1197 52.0298C43.1199 52.6299 42.6335 53.1163 42.0333 53.1163Z" fill="#407194"/>
<path d="M56.6832 26.9315C61.2729 22.3418 61.2729 14.9004 56.6832 10.3107C52.0935 5.72096 44.6521 5.72096 40.0624 10.3107C35.4727 14.9004 35.4727 22.3418 40.0624 26.9315C44.6521 31.5212 52.0935 31.5212 56.6832 26.9315Z" fill="#FCBC04"/>
<path d="M48.3782 27.189C53.1121 27.189 56.9497 23.3514 56.9497 18.6174C56.9497 13.8835 53.1121 10.0459 48.3782 10.0459C43.6443 10.0459 39.8066 13.8835 39.8066 18.6174C39.8066 23.3514 43.6443 27.189 48.3782 27.189Z" fill="#FFE600"/>
<path fill-rule="evenodd" clip-rule="evenodd" d="M50.9811 15.1772C51.2768 15.5847 51.1854 16.1556 50.7779 16.4512C50.3703 16.7469 49.7995 16.6556 49.5038 16.248C49.4147 16.1247 49.3006 16.0254 49.1727 15.9592C49.0505 15.8964 48.9078 15.861 48.7526 15.861H48.1749C47.9214 15.861 47.6908 15.9649 47.523 16.1327C47.3552 16.3005 47.2513 16.5312 47.2513 16.7846C47.2513 17.0369 47.3552 17.2687 47.523 17.4365C47.6908 17.6043 47.9214 17.7082 48.1749 17.7082H48.5859C50.0986 17.7082 51.3361 18.9458 51.3361 20.4584C51.3361 21.2154 51.0267 21.9038 50.529 22.4015C50.1922 22.7383 49.7675 22.9895 49.2937 23.1162V23.4987C49.2937 24.0033 48.885 24.412 48.3804 24.412C47.8758 24.412 47.4671 24.0033 47.4671 23.4987V23.1539C47.2193 23.1025 46.9819 23.018 46.7604 22.9039C46.3676 22.7018 46.032 22.4141 45.7808 22.0659C45.4851 21.6583 45.5765 21.0875 45.984 20.7918C46.3916 20.4961 46.9624 20.5875 47.2581 20.995C47.3472 21.1183 47.4613 21.2176 47.5892 21.2839C47.7114 21.3467 47.8541 21.382 48.0093 21.382H48.587C48.8405 21.382 49.0711 21.2782 49.2389 21.1103C49.4067 20.9425 49.5106 20.7119 49.5106 20.4584C49.5106 19.9504 49.0951 19.5349 48.587 19.5349H48.176C47.4191 19.5349 46.7307 19.2255 46.2329 18.7277C45.7352 18.2299 45.4258 17.5415 45.4258 16.7846C45.4258 16.0277 45.7352 15.3393 46.2329 14.8415C46.5697 14.5047 46.9944 14.2536 47.4682 14.1268V13.7444C47.4682 13.2398 47.8769 12.8311 48.3815 12.8311C48.8861 12.8311 49.2948 13.2398 49.2948 13.7444V14.0892C49.5426 14.1405 49.7801 14.225 50.0015 14.3392C50.3931 14.5413 50.7288 14.829 50.9811 15.1772Z" fill="#FCBC04"/>
<path fill-rule="evenodd" clip-rule="evenodd" d="M64.2527 13.2103H62.7126C62.2491 13.2103 61.9659 12.676 62.2616 12.2924L66.5006 6.80673C66.7289 6.51104 67.173 6.51104 67.4014 6.80673L71.6403 12.2924C71.9371 12.676 71.6529 13.2103 71.1894 13.2103H69.6493V22.1186C69.6493 22.5296 69.3136 22.8641 68.9038 22.8641H64.9982C64.5872 22.8641 64.2527 22.5285 64.2527 22.1186V13.2103Z" fill="#4294FF"/>
<path fill-rule="evenodd" clip-rule="evenodd" d="M27.112 13.2103H25.572C25.1084 13.2103 24.8253 12.676 25.121 12.2924L29.36 6.80673C29.5883 6.51104 30.0324 6.51104 30.2607 6.80673L34.4997 12.2924C34.7965 12.676 34.5122 13.2103 34.0487 13.2103H32.5086V22.1186C32.5086 22.5296 32.173 22.8641 31.7631 22.8641H27.8575C27.4465 22.8641 27.112 22.5285 27.112 22.1186V13.2103Z" fill="#4294FF"/>
</g>
<defs>
<clipPath id="clip0_968_3246">
<rect width="72" height="72" fill="white"/>
</clipPath>
</defs>
</svg>
