<svg width="36" height="32" viewBox="0 0 36 32" fill="none" xmlns="http://www.w3.org/2000/svg">
<g clip-path="url(#clip0_7_640)">
<path d="M24.0691 21.4174L22.2423 23.0649C22.086 22.988 21.9171 22.9117 21.7467 22.8253C20.1786 22.041 17.0828 20.1154 14.8246 18.0786C12.5616 16.0369 10.4185 13.2436 9.54964 11.8292C9.45598 11.6806 9.41773 11.5834 9.33251 11.4442L11.0461 9.99167L11.2236 9.83154C12.5813 8.60698 12.5813 6.6217 11.2236 5.39708L8.54635 2.98232C7.18116 1.75098 4.96497 1.7589 3.61061 2.99995L2.89701 3.65381C2.43224 4.18983 2.03807 4.81336 1.74944 5.47825C1.4826 6.1134 1.31188 6.72133 1.23798 7.32667C0.585903 12.1888 3.04888 16.6333 9.73238 22.664C18.9739 30.997 26.3733 30.4193 26.695 30.3868C27.3935 30.3125 28.1122 30.1126 28.7946 29.8746C29.5262 29.6167 30.2234 29.2558 30.8149 28.8366L31.5401 28.1934C32.9173 26.972 32.9266 24.9722 31.5609 23.7404L28.9853 21.4173C27.6277 20.193 25.4267 20.193 24.0691 21.4174Z" fill="#FD4A18"/>
<path d="M26.1596 31.4303C26.1594 31.4303 26.1592 31.4303 26.1592 31.4303C24.2096 31.4303 17.2057 30.8501 8.93007 23.3882C1.96968 17.1076 -0.585828 12.4198 0.110478 7.20952C0.194572 6.52529 0.383573 5.8403 0.688308 5.11542C0.689784 5.11206 0.691261 5.10857 0.692737 5.10508C1.01723 4.35737 1.47047 3.6375 2.00308 3.02303C2.02966 2.9924 2.058 2.96322 2.08823 2.93557L2.80183 2.28172C3.67554 1.48105 4.84266 1.04016 6.08832 1.04016C7.32012 1.04016 8.47803 1.47281 9.349 2.25825L12.0262 4.67307C12.8971 5.45864 13.3769 6.50316 13.3769 7.61414C13.3769 8.72511 12.8972 9.76957 12.0262 10.5552L11.8486 10.7153C11.8403 10.7227 11.832 10.7302 11.8235 10.7373L10.7453 11.6513C11.63 13.0007 13.5402 15.4713 15.6274 17.3546C17.7442 19.2638 20.5628 21.0215 22.0413 21.7983L23.2666 20.6932C24.1376 19.9077 25.2955 19.4752 26.5272 19.4752C27.759 19.4752 28.9169 19.9078 29.7879 20.6933L32.3635 23.0163C33.2398 23.8067 33.7194 24.8574 33.714 25.9751C33.7088 27.0926 33.2193 28.1396 32.3358 28.9232L31.6105 29.5663C31.5806 29.5929 31.549 29.6179 31.516 29.6413C30.8313 30.1264 30.0331 30.5367 29.2075 30.8278C28.3126 31.1401 27.5354 31.328 26.8279 31.4032C26.7602 31.4104 26.5333 31.4303 26.1596 31.4303ZM2.80866 5.84632C2.57325 6.40739 2.42855 6.92838 2.36625 7.43885C2.36583 7.44246 2.36533 7.44601 2.36491 7.44956C1.76008 11.9599 4.12723 16.1581 10.5352 21.9405C18.1938 28.8459 24.4304 29.3829 26.1593 29.3829C26.1594 29.3829 26.1595 29.3829 26.1596 29.3829C26.4275 29.3829 26.5684 29.3696 26.5698 29.3695C27.0776 29.3155 27.6738 29.1682 28.385 28.9199C28.9836 28.7089 29.5646 28.4137 30.0659 28.0652L30.7444 27.4635C31.1931 27.0656 31.4415 26.5341 31.4442 25.9667C31.447 25.3991 31.2034 24.8656 30.7585 24.4644L28.1829 22.1413C27.7407 21.7425 27.1527 21.5228 26.5274 21.5228C25.902 21.5228 25.314 21.7425 24.8718 22.1412L23.0451 23.7886C22.6891 24.1099 22.1413 24.1808 21.6993 23.9636C21.6398 23.9343 21.5784 23.9053 21.5158 23.8756C21.4097 23.8252 21.3007 23.7733 21.191 23.7177C19.6429 22.9434 16.4502 20.9922 14.0225 18.8025C11.596 16.6132 9.38577 13.6728 8.55988 12.3296C8.49174 12.2211 8.44527 12.1331 8.40765 12.0622C8.38698 12.0232 8.36701 11.9844 8.33931 11.9393C8.0885 11.5297 8.17738 11.0187 8.55538 10.6982L10.256 9.25644L10.4212 9.1076C10.8632 8.70875 11.1068 8.17844 11.1068 7.61439C11.1068 7.05021 10.8632 6.52003 10.4211 6.12112L7.74376 3.70631C7.30156 3.30746 6.71361 3.08778 6.08825 3.08778C5.45586 3.08778 4.86312 3.31165 4.41945 3.7181L3.75309 4.32864C3.37186 4.77752 3.04603 5.30098 2.80866 5.84632Z" fill="#FD4A18"/>
</g>
<defs>
<clipPath id="clip0_7_640">
<rect width="36" height="31.7647" fill="white"/>
</clipPath>
</defs>
</svg>
